<svg width="27" height="24" viewBox="0 0 27 24" fill="none" xmlns="http://www.w3.org/2000/svg">
<path d="M20.1537 6.49996C19.9706 9.04182 18.0849 10.9999 16.0286 10.9999C13.9723 10.9999 12.0835 9.04244 11.9035 6.49996C11.716 3.85561 13.5516 2 16.0286 2C18.5055 2 20.3412 3.90373 20.1537 6.49996Z" stroke="#807CA3" stroke-width="2.4" stroke-linecap="round" stroke-linejoin="round"/>
<path d="M16.027 15.0001C11.9538 15.0001 8.03679 17.0232 7.05551 20.9631C6.92551 21.4844 7.25239 22 7.78803 22H24.2666C24.8023 22 25.1273 21.4844 24.9992 20.9631C24.0179 16.96 20.1009 15.0001 16.027 15.0001Z" stroke="#807CA3" stroke-width="2.4" stroke-miterlimit="10"/>
<path d="M10.0786 9.29756C9.9521 11.0527 8.63463 12.4349 7.21449 12.4349C5.79435 12.4349 4.47471 11.0532 4.35042 9.29756C4.22127 7.47165 5.50362 6.16666 7.21449 6.16666C8.92536 6.16666 10.2077 7.50515 10.0786 9.29756Z" stroke="#807CA3" stroke-width="2" stroke-linecap="round" stroke-linejoin="round"/>
<path d="M10.4033 15.7848C9.4279 15.3379 8.35361 15.1661 7.21501 15.1661C4.40498 15.1661 1.69763 16.5629 1.01944 19.2837C0.930278 19.6436 1.15616 19.9997 1.52579 19.9997H7.59328" stroke="#807CA3" stroke-width="2" stroke-miterlimit="10" stroke-linecap="round"/>
</svg>
