
    <svg
      width="15"
      height="17"
      viewBox="0 0 15 17"
      fill="none"
      xmlns="http://www.w3.org/2000/svg"
    >
      <path
        d="M3.10196 7.58734C3.10196 5.60782 3.10196 4.61736 3.71714 4.00279C4.33163 3.38751 5.32195 3.38751 7.30118 3.38751H9.40079C11.38 3.38751 12.3703 3.38751 12.9848 4.00279C13.6 4.61736 13.6 5.60782 13.6 7.58734V11.0872C13.6 13.0667 13.6 14.0572 12.9848 14.6717C12.3703 15.287 11.38 15.287 9.40079 15.287H7.30118C5.32195 15.287 4.33163 15.287 3.71714 14.6717C3.10196 14.0572 3.10196 13.0667 3.10196 11.0872V7.58734Z"
        stroke="#52515C"
        stroke-width="1.5"
      />
      <path
        d="M3.09961 13.1865C2.54276 13.1865 2.00871 12.9653 1.61496 12.5715C1.22121 12.1777 1 11.6435 1 11.0866V6.88678C1 4.24719 1 2.92705 1.82025 2.10738C2.64049 1.28772 3.95975 1.28702 6.59896 1.28702H9.39844C9.95529 1.28702 10.4893 1.50826 10.8831 1.90207C11.2768 2.29588 11.498 2.83 11.498 3.38693"
        stroke="#52515C"
        stroke-width="1.5"
      />
    </svg>
