
    <svg
      width="20"
      height="20"
      viewBox="0 0 20 20"
      fill="none"
      xmlns="http://www.w3.org/2000/svg"
    >
      <path
        d="M0.990234 0.200195H16.8379C17.0469 0.200195 17.2481 0.283836 17.3965 0.433594C17.5449 0.583479 17.6289 0.787213 17.6289 1V4.67383L16.0479 6.27051V1.7998H1.78125V18.2002H16.0479V15.3242L17.6289 13.7275V19C17.6289 19.2128 17.5449 19.4165 17.3965 19.5664C17.2481 19.7162 17.0469 19.7998 16.8379 19.7998H0.990234C0.781401 19.7997 0.58093 19.716 0.432617 19.5664C0.284157 19.4165 0.200195 19.2128 0.200195 19V1C0.200195 0.787213 0.284157 0.583479 0.432617 0.433594C0.58093 0.283978 0.781402 0.200264 0.990234 0.200195ZM19.7178 8.22168L12.2129 15.7988L11.0938 15.7979L11.0947 14.667L18.5986 7.0918L19.7178 8.22168ZM9.70508 10.2002V11.7998H5.15234V10.2002H9.70508ZM12.6768 6.2002V7.7998H5.15234V6.2002H12.6768Z"
        fill="#807CA3"
        stroke="#807CA3"
        stroke-width="0.4"
      />
    </svg>
 