
    <svg
      width="22"
      height="22"
      viewBox="0 0 22 22"
      fill="none"
      xmlns="http://www.w3.org/2000/svg"
    >
      <path
        d="M11.7144 1C11.525 1 11.3433 1.07526 11.2094 1.20922C11.0754 1.34318 11.0002 1.52487 11.0002 1.71433V10.2862C11.0002 10.4757 11.0754 10.6574 11.2094 10.7913C11.3433 10.9253 11.525 11.0006 11.7144 11.0006H20.2857C20.4752 11.0006 20.6568 10.9253 20.7908 10.7913C20.9247 10.6574 21 10.4757 21 10.2862C21 9.06675 20.7598 7.8592 20.2932 6.73255C19.8265 5.60589 19.1426 4.58218 18.2803 3.71987C17.4181 2.85757 16.3944 2.17355 15.2679 1.70687C14.1413 1.2402 12.9338 1 11.7144 1ZM12.4287 9.57191V2.46008C14.2585 2.62689 15.972 3.42975 17.2712 4.72907C18.5704 6.02839 19.3732 7.74198 19.54 9.57191H12.4287ZM9.57161 4.60306C9.57161 4.50383 9.55094 4.40569 9.51092 4.31489C9.4709 4.22409 9.4124 4.14262 9.33915 4.07569C9.2659 4.00875 9.17951 3.95781 9.08549 3.92611C8.99146 3.89442 8.89187 3.88266 8.79305 3.89159C7.17085 4.0395 5.62439 4.64664 4.3348 5.64187C3.04521 6.63711 2.06589 7.97924 1.51157 9.51105C0.957243 11.0429 0.850857 12.7009 1.20487 14.291C1.55889 15.8811 2.35865 17.3374 3.51048 18.4893C4.6623 19.6413 6.11849 20.4411 7.70848 20.7951C9.29847 21.1492 10.9564 21.0428 12.4881 20.4884C14.0198 19.934 15.3619 18.9546 16.357 17.665C17.3522 16.3753 17.9593 14.8287 18.1072 13.2064C18.1159 13.1078 18.104 13.0085 18.0723 12.9147C18.0406 12.8209 17.9898 12.7348 17.923 12.6617C17.8563 12.5887 17.7751 12.5302 17.6845 12.4902C17.594 12.4502 17.4962 12.4294 17.3972 12.4292H9.57161V4.60306ZM2.42886 12.4292C2.42852 10.7825 2.99711 9.18619 4.0384 7.91052C5.07968 6.63486 6.5297 5.75817 8.14306 5.42882V13.1435C8.14306 13.333 8.21831 13.5147 8.35226 13.6486C8.48622 13.7826 8.66789 13.8579 8.85733 13.8579H16.5715C16.213 15.5885 15.2261 17.1248 13.8012 18.1702C12.3763 19.2156 10.6146 19.6959 8.85631 19.5183C7.09805 19.3407 5.46797 18.5178 4.2809 17.2085C3.09384 15.8993 2.43401 14.1965 2.42886 12.4292Z"
        fill="#807CA3"
        stroke="#807CA3"
        stroke-width="0.4"
      />
    </svg>
