
    <svg
      width="15"
      height="15"
      viewBox="0 0 15 15"
      fill="none"
      xmlns="http://www.w3.org/2000/svg"
    >
      <path
        d="M13.9 6.58804C13.7144 6.58804 13.5363 6.66179 13.405 6.79306C13.2738 6.92434 13.2 7.10238 13.2 7.28803C13.2083 8.59915 12.7592 9.87214 11.93 10.8877C11.1007 11.9034 9.94328 12.598 8.65698 12.8521C7.37068 13.1061 6.03605 12.9037 4.88296 12.2796C3.72987 11.6555 2.83049 10.6488 2.33973 9.43301C1.84898 8.21717 1.79756 6.86826 2.19434 5.61859C2.59112 4.36892 3.41126 3.29673 4.5135 2.58669C5.61574 1.87664 6.93108 1.57318 8.23299 1.72858C9.53489 1.88398 10.7419 2.4885 11.646 3.43804H9.96601C9.78036 3.43804 9.60231 3.51179 9.47103 3.64306C9.33976 3.77434 9.26601 3.95239 9.26601 4.13804C9.26601 4.32369 9.33976 4.50174 9.47103 4.63301C9.60231 4.76429 9.78036 4.83804 9.96601 4.83804H13.137C13.3227 4.83804 13.5007 4.76429 13.632 4.63301C13.7633 4.50174 13.837 4.32369 13.837 4.13804V0.988042C13.837 0.802391 13.7633 0.624343 13.632 0.493068C13.5007 0.361793 13.3227 0.288043 13.137 0.288043C12.9514 0.288043 12.7733 0.361793 12.642 0.493068C12.5108 0.624343 12.437 0.802391 12.437 0.988042V2.22704C11.2713 1.11268 9.75653 0.43501 8.14882 0.308573C6.54111 0.182137 4.93905 0.614694 3.61345 1.53312C2.28786 2.45156 1.32003 3.79952 0.873588 5.34917C0.427142 6.89882 0.529455 8.55508 1.16323 10.038C1.79701 11.5209 2.92338 12.7395 4.35194 13.4878C5.78049 14.2361 7.42361 14.4682 9.00353 14.1449C10.5835 13.8215 12.0033 12.9626 13.023 11.7132C14.0427 10.4638 14.5998 8.90071 14.6 7.28803C14.6 7.10238 14.5263 6.92434 14.395 6.79306C14.2637 6.66179 14.0857 6.58804 13.9 6.58804Z"
        fill="#52515C"
      />
    </svg>
