
    <svg
      width="26"
      height="25"
      viewBox="0 0 26 25"
      fill="none"
      xmlns="http://www.w3.org/2000/svg"
    >
      <path
        d="M11.9629 19.4676C11.7493 19.4675 11.5446 19.3827 11.3936 19.2317L6.29164 14.1303C6.19135 14.03 6.11933 13.905 6.08287 13.768C6.0464 13.6309 6.04678 13.4867 6.08397 13.3498C7.10997 10.2167 8.90016 7.38847 11.2929 5.12045C16.1047 0.308851 23.9063 0.494052 24.2413 0.50291C24.4461 0.509323 24.6408 0.593562 24.7857 0.738477C24.9307 0.883392 25.0149 1.07809 25.0213 1.28293C25.0307 1.61307 25.2155 9.41807 20.403 14.2302C18.1353 16.6229 15.3073 18.4132 12.1744 19.4393C12.1055 19.4582 12.0343 19.4678 11.9629 19.4676ZM7.76918 13.3306L12.1933 17.7542C14.8736 16.7566 17.2916 15.1621 19.2643 13.0915C22.748 9.60762 23.3118 4.15507 23.3975 2.12704C21.3679 2.21561 15.9073 2.7837 12.4316 6.25895C10.3611 8.23192 8.76668 10.6502 7.76918 13.3306Z"
        fill="#807CA3"
        stroke="#807CA3"
        stroke-width="0.4"
      />
      <path
        d="M15.6756 13.0677C14.9309 13.067 14.2094 12.8082 13.6341 12.3352C13.0588 11.8623 12.6653 11.2045 12.5206 10.474C12.3759 9.74345 12.489 8.98535 12.8405 8.32883C13.1921 7.67231 13.7604 7.15798 14.4487 6.87348C15.1369 6.58897 15.9025 6.55189 16.6151 6.76854C17.3276 6.98519 17.943 7.44218 18.3563 8.06165C18.7697 8.68112 18.9555 9.42474 18.8821 10.1658C18.8087 10.9069 18.4806 11.5997 17.9537 12.126C17.6547 12.4252 17.2995 12.6624 16.9086 12.824C16.5176 12.9856 16.0986 13.0684 15.6756 13.0677ZM15.6764 8.23918C15.3041 8.23949 14.9433 8.3689 14.6557 8.60535C14.368 8.84181 14.1713 9.17068 14.0989 9.53594C14.0266 9.9012 14.0831 10.2802 14.2589 10.6085C14.4347 10.9367 14.7189 11.1939 15.063 11.3361C15.4071 11.4783 15.7899 11.4968 16.1462 11.3885C16.5024 11.2801 16.8101 11.0516 17.0167 10.7418C17.2233 10.4321 17.3162 10.0602 17.2794 9.68971C17.2426 9.31917 17.0785 8.97285 16.815 8.70975C16.6655 8.56025 16.488 8.44172 16.2926 8.36095C16.0972 8.28019 15.8878 8.23886 15.6764 8.23918Z"
        fill="#807CA3"
        stroke="#807CA3"
        stroke-width="0.4"
      />
      <path
        d="M23.0782 8.94585C22.9725 8.94599 22.8677 8.92522 22.77 8.88473C22.6723 8.84424 22.5835 8.78483 22.5088 8.70992L16.8148 3.01637C16.6676 2.8646 16.586 2.66101 16.5876 2.44958C16.5892 2.23815 16.6739 2.03584 16.8235 1.88634C16.973 1.73683 17.1753 1.65214 17.3867 1.65054C17.5982 1.64894 17.8017 1.73056 17.9535 1.87778L23.6476 7.57134C23.7602 7.68395 23.8369 7.82741 23.8679 7.98359C23.899 8.13976 23.883 8.30164 23.8221 8.44875C23.7612 8.59587 23.658 8.72161 23.5256 8.81009C23.3932 8.89857 23.2375 8.94582 23.0782 8.94585Z"
        fill="#807CA3"
        stroke="#807CA3"
        stroke-width="0.4"
      />
      <path
        d="M9.41173 20.8046C9.09422 20.8055 8.7797 20.7434 8.48637 20.6218C8.19305 20.5003 7.92676 20.3217 7.70293 20.0965L5.42563 17.8197C4.97315 17.3664 4.71902 16.752 4.71902 16.1115C4.71902 15.471 4.97315 14.8567 5.42563 14.4034L6.56424 13.2648C6.71525 13.1138 6.92004 13.029 7.13359 13.029C7.34713 13.029 7.55192 13.1138 7.70293 13.2648L12.2583 17.8197C12.4093 17.9707 12.4941 18.1755 12.4941 18.389C12.4941 18.6026 12.4093 18.8073 12.2583 18.9583L11.1197 20.0969C10.896 20.322 10.6298 20.5004 10.3366 20.6219C10.0434 20.7434 9.72908 20.8055 9.41173 20.8046ZM7.13338 14.9727L6.564 15.542C6.41331 15.6933 6.3287 15.898 6.3287 16.1115C6.3287 16.325 6.41331 16.5298 6.564 16.681L8.84211 18.9583H8.84291C8.99611 19.1048 9.1999 19.1866 9.41185 19.1866C9.62381 19.1866 9.8276 19.1048 9.9808 18.9583L10.5501 18.389L7.13338 14.9727Z"
        fill="#807CA3"
        stroke="#807CA3"
        stroke-width="0.4"
      />
      <path
        d="M6.56628 15.2088C6.50026 15.2089 6.43447 15.2008 6.37045 15.1847L1.81584 14.046C1.67762 14.0115 1.55105 13.9408 1.44903 13.8414C1.34702 13.7419 1.27322 13.6172 1.23517 13.4799C1.19711 13.3426 1.19617 13.1977 1.23243 13.0599C1.26869 12.9221 1.34086 12.7964 1.44157 12.6957L3.23999 10.897C3.4662 10.6682 3.73636 10.4875 4.03423 10.3659C4.33209 10.2442 4.65149 10.1841 4.97319 10.1892L7.8835 10.2207C7.98925 10.2218 8.09375 10.2437 8.19102 10.2852C8.28829 10.3268 8.37643 10.387 8.45041 10.4626C8.52438 10.5382 8.58275 10.6276 8.62216 10.7257C8.66158 10.8239 8.68127 10.9288 8.68012 11.0346C8.68183 11.1411 8.66181 11.2469 8.62129 11.3454C8.58077 11.444 8.5206 11.5333 8.44444 11.6078C8.36829 11.6823 8.27774 11.7406 8.17834 11.779C8.07894 11.8173 7.97275 11.8351 7.86627 11.8311L4.95661 11.7994C4.74139 11.8024 4.53523 11.8865 4.37941 12.035L3.58592 12.8284L6.76051 13.6222C6.95097 13.67 7.11743 13.7856 7.22858 13.9475C7.33972 14.1094 7.38789 14.3063 7.36403 14.5011C7.34017 14.696 7.24591 14.8755 7.099 15.0058C6.95209 15.136 6.76264 15.2085 6.56628 15.2088Z"
        fill="#807CA3"
        stroke="#807CA3"
        stroke-width="0.4"
      />
      <path
        d="M12.2599 24.3185C12.0803 24.3186 11.9058 24.2587 11.7643 24.1482C11.6227 24.0376 11.5222 23.8829 11.4788 23.7087L10.3401 19.1537C10.3127 19.0506 10.306 18.943 10.3205 18.8372C10.335 18.7315 10.3704 18.6296 10.4247 18.5377C10.4789 18.4457 10.5509 18.3655 10.6364 18.3016C10.7219 18.2377 10.8193 18.1915 10.9229 18.1656C11.0264 18.1397 11.1341 18.1346 11.2396 18.1507C11.3452 18.1668 11.4465 18.2037 11.5376 18.2593C11.6287 18.3149 11.7079 18.388 11.7705 18.4745C11.8331 18.561 11.8779 18.659 11.9023 18.7629L12.6965 21.9383L13.4892 21.1456C13.5649 21.0696 13.6247 20.9794 13.6652 20.8801C13.7057 20.7808 13.7261 20.6744 13.7251 20.5672L13.6936 17.6581C13.6925 17.5524 13.7122 17.4474 13.7516 17.3493C13.791 17.2512 13.8494 17.1618 13.9233 17.0862C13.9973 17.0106 14.0854 16.9504 14.1827 16.9089C14.2799 16.8674 14.3844 16.8454 14.4902 16.8443C14.7029 16.8445 14.9072 16.928 15.0593 17.0768C15.2114 17.2257 15.2992 17.4281 15.3041 17.6408L15.3356 20.5499C15.3383 20.8715 15.2772 21.1904 15.1557 21.4882C15.0342 21.786 14.8547 22.0567 14.6278 22.2846L12.8293 24.0826C12.6783 24.2336 12.4735 24.3184 12.2599 24.3185Z"
        fill="#807CA3"
        stroke="#807CA3"
        stroke-width="0.4"
      />
      <path
        d="M1.82851 24.4998C1.66927 24.4998 1.51362 24.4525 1.38123 24.364C1.24884 24.2755 1.14566 24.1498 1.08472 24.0027C1.02379 23.8556 1.00784 23.6937 1.0389 23.5375C1.06996 23.3813 1.14662 23.2379 1.2592 23.1253L4.37243 20.0125C4.5243 19.8659 4.7277 19.7847 4.93883 19.7865C5.14997 19.7884 5.35193 19.873 5.50123 20.0223C5.65053 20.1716 5.73521 20.3736 5.73705 20.5847C5.73888 20.7958 5.65772 20.9992 5.51104 21.1511L2.39781 24.2641C2.32314 24.339 2.23439 24.3983 2.13669 24.4388C2.03899 24.4792 1.93425 24.5 1.82851 24.4998Z"
        fill="#807CA3"
        stroke="#807CA3"
        stroke-width="0.4"
      />
      <path
        d="M5.53246 24.4998C5.37323 24.4998 5.21758 24.4526 5.08519 24.3641C4.9528 24.2756 4.84961 24.1498 4.78868 24.0027C4.72775 23.8556 4.7118 23.6937 4.74286 23.5376C4.77391 23.3814 4.85058 23.2379 4.96316 23.1253L6.51937 21.5687C6.59371 21.4921 6.68255 21.431 6.78073 21.389C6.8789 21.347 6.98445 21.325 7.09122 21.3242C7.19799 21.3234 7.30386 21.3438 7.40267 21.3843C7.50147 21.4248 7.59124 21.4845 7.66675 21.56C7.74225 21.6355 7.80199 21.7252 7.84248 21.824C7.88297 21.9228 7.9034 22.0287 7.90259 22.1355C7.90178 22.2422 7.87975 22.3478 7.83777 22.446C7.79579 22.5441 7.7347 22.633 7.65806 22.7073L6.10177 24.2641C6.02709 24.339 5.93835 24.3984 5.84065 24.4388C5.74294 24.4793 5.63821 24.5 5.53246 24.4998Z"
        fill="#807CA3"
        stroke="#807CA3"
        stroke-width="0.4"
      />
      <path
        d="M1.80507 20.7724C1.64583 20.7724 1.49018 20.7252 1.35779 20.6367C1.2254 20.5482 1.12222 20.4224 1.06129 20.2753C1.00035 20.1282 0.984407 19.9663 1.01546 19.8102C1.04652 19.654 1.12318 19.5105 1.23576 19.3979L2.79197 17.8413C2.86625 17.7644 2.95511 17.7031 3.05335 17.6609C3.15159 17.6187 3.25726 17.5965 3.36418 17.5956C3.4711 17.5946 3.57713 17.615 3.67609 17.6555C3.77505 17.696 3.86496 17.7558 3.94057 17.8314C4.01617 17.907 4.07596 17.9969 4.11645 18.0958C4.15694 18.1948 4.17731 18.3008 4.17639 18.4077C4.17546 18.5147 4.15324 18.6203 4.11104 18.7186C4.06884 18.8168 4.00749 18.9056 3.93059 18.9799L2.37438 20.5365C2.29971 20.6114 2.21097 20.6708 2.11327 20.7113C2.01557 20.7518 1.91083 20.7726 1.80507 20.7724Z"
        fill="#807CA3"
        stroke="#807CA3"
        stroke-width="0.4"
      />
    </svg>
