
    <svg
      width="23"
      height="24"
      viewBox="0 0 23 24"
      fill="none"
      xmlns="http://www.w3.org/2000/svg"
    >
      <path
        d="M11.4274 15.0003C13.0843 15.0003 14.4274 13.6572 14.4274 12.0003C14.4274 10.3435 13.0843 9.00031 11.4274 9.00031C9.77055 9.00031 8.42741 10.3435 8.42741 12.0003C8.42741 13.6572 9.77055 15.0003 11.4274 15.0003Z"
        stroke="#807CA3"
        stroke-width="2.4"
      />
      <path
        d="M13.1932 2.152C12.8262 2 12.3602 2 11.4282 2C10.4962 2 10.0302 2 9.66318 2.152C9.42037 2.25251 9.19974 2.3999 9.01391 2.58572C8.82808 2.77155 8.6807 2.99218 8.58019 3.235C8.48819 3.458 8.45118 3.719 8.43718 4.098C8.43067 4.37193 8.35479 4.63973 8.21663 4.87635C8.07846 5.11298 7.88254 5.31069 7.64718 5.451C7.40799 5.58477 7.13877 5.65567 6.86472 5.65707C6.59066 5.65847 6.32073 5.59032 6.08018 5.459C5.74418 5.281 5.50118 5.183 5.26018 5.151C4.7345 5.08187 4.20288 5.22431 3.78219 5.547C3.46819 5.79 3.23418 6.193 2.76818 7C2.30218 7.807 2.06818 8.21 2.01718 8.605C1.98282 8.86545 2.0001 9.13012 2.06805 9.38389C2.136 9.63767 2.25328 9.87556 2.41318 10.084C2.56118 10.276 2.76818 10.437 3.08918 10.639C3.56218 10.936 3.86619 11.442 3.86619 12C3.86619 12.558 3.56218 13.064 3.08918 13.36C2.76818 13.563 2.56018 13.724 2.41318 13.916C2.25328 14.1244 2.136 14.3623 2.06805 14.6161C2.0001 14.8699 1.98282 15.1345 2.01718 15.395C2.06918 15.789 2.30218 16.193 2.76718 17C3.23418 17.807 3.46719 18.21 3.78219 18.453C3.99062 18.6129 4.22852 18.7302 4.48229 18.7981C4.73606 18.8661 5.00073 18.8834 5.26119 18.849C5.50119 18.817 5.74418 18.719 6.08018 18.541C6.32073 18.4097 6.59066 18.3415 6.86472 18.3429C7.13877 18.3443 7.40799 18.4152 7.64718 18.549C8.13018 18.829 8.41718 19.344 8.43718 19.902C8.45118 20.282 8.48719 20.542 8.58019 20.765C8.6807 21.0078 8.82808 21.2284 9.01391 21.4143C9.19974 21.6001 9.42037 21.7475 9.66318 21.848C10.0302 22 10.4962 22 11.4282 22C12.3602 22 12.8262 22 13.1932 21.848C13.436 21.7475 13.6566 21.6001 13.8425 21.4143C14.0283 21.2284 14.1757 21.0078 14.2762 20.765C14.3682 20.542 14.4052 20.282 14.4192 19.902C14.4392 19.344 14.7262 18.828 15.2092 18.549C15.4484 18.4152 15.7176 18.3443 15.9917 18.3429C16.2657 18.3415 16.5356 18.4097 16.7762 18.541C17.1122 18.719 17.3552 18.817 17.5952 18.849C17.8556 18.8834 18.1203 18.8661 18.3741 18.7981C18.6278 18.7302 18.8657 18.6129 19.0742 18.453C19.3892 18.211 19.6222 17.807 20.0882 17C20.5542 16.193 20.7882 15.79 20.8392 15.395C20.8735 15.1345 20.8563 14.8699 20.7883 14.6161C20.7204 14.3623 20.6031 14.1244 20.4432 13.916C20.2952 13.724 20.0882 13.563 19.7672 13.361C19.5331 13.2184 19.339 13.0187 19.2032 12.7807C19.0673 12.5427 18.994 12.2741 18.9902 12C18.9902 11.442 19.2942 10.936 19.7672 10.64C20.0882 10.437 20.2962 10.276 20.4432 10.084C20.6031 9.87556 20.7204 9.63767 20.7883 9.38389C20.8563 9.13012 20.8735 8.86545 20.8392 8.605C20.7872 8.211 20.5542 7.807 20.0892 7C19.6222 6.193 19.3892 5.79 19.0742 5.547C18.8657 5.38709 18.6278 5.26981 18.3741 5.20187C18.1203 5.13392 17.8556 5.11664 17.5952 5.151C17.3552 5.183 17.1122 5.281 16.7752 5.459C16.5348 5.59014 16.265 5.6582 15.9912 5.6568C15.7173 5.6554 15.4483 5.58459 15.2092 5.451C14.9738 5.31069 14.7779 5.11298 14.6397 4.87635C14.5016 4.63973 14.4257 4.37193 14.4192 4.098C14.4052 3.718 14.3692 3.458 14.2762 3.235C14.1757 2.99218 14.0283 2.77155 13.8425 2.58572C13.6566 2.3999 13.436 2.25251 13.1932 2.152Z"
        stroke="#807CA3"
        stroke-width="2.4"
      />
    </svg>

